<svg xmlns="http://www.w3.org/2000/svg" width="1280" height="760" viewBox="0 0 1280 760">
  <rect width="1280" height="760" fill="#f8fafc"/>
  <rect x="24" y="24" width="260" height="712" rx="18" fill="#ffffff" stroke="#dbe4f0"/>
  <text x="52" y="86" font-family="Arial, sans-serif" font-size="24" font-weight="700" fill="#0f172a">左メニュー</text>
  <text x="52" y="150" font-family="Arial, sans-serif" font-size="22" fill="#64748b">損益ダッシュボード</text>
  <text x="52" y="202" font-family="Arial, sans-serif" font-size="22" fill="#64748b">車両管理</text>
  <rect x="320" y="54" width="900" height="70" rx="10" fill="#ffffff" stroke="#dbe4f0"/>
  <text x="342" y="98" font-family="Arial, sans-serif" font-size="34" font-weight="700" fill="#0f172a">車両管理</text>
  <rect x="320" y="158" width="220" height="68" rx="12" fill="#eff6ff" stroke="#93c5fd"/>
  <text x="350" y="200" font-family="Arial, sans-serif" font-size="23" fill="#1e3a8a">① 法人</text>
  <rect x="565" y="158" width="260" height="68" rx="12" fill="#eff6ff" stroke="#93c5fd"/>
  <text x="595" y="200" font-family="Arial, sans-serif" font-size="23" fill="#1e3a8a">① 施設</text>
  <rect x="850" y="158" width="250" height="68" rx="12" fill="#eff6ff" stroke="#93c5fd"/>
  <text x="880" y="200" font-family="Arial, sans-serif" font-size="23" fill="#1e3a8a">② 車検状態</text>
  <rect x="320" y="250" width="780" height="56" rx="10" fill="#ffffff" stroke="#cbd5e1"/>
  <text x="350" y="286" font-family="Arial, sans-serif" font-size="22" fill="#64748b">③ 登録番号・メーカー・車名で検索</text>
  <rect x="320" y="350" width="260" height="230" rx="16" fill="#ffffff" stroke="#dbe4f0"/>
  <text x="350" y="396" font-family="Arial, sans-serif" font-size="25" font-weight="700" fill="#0f172a">④ 車両カード</text>
  <text x="350" y="450" font-family="Arial, sans-serif" font-size="22" fill="#475569">奈良 501 め 85-37</text>
  <text x="350" y="492" font-family="Arial, sans-serif" font-size="20" fill="#64748b">車検: 2026-05-29</text>
  <rect x="350" y="522" width="110" height="34" rx="17" fill="#ffedd5"/>
  <text x="371" y="546" font-family="Arial, sans-serif" font-size="17" font-weight="700" fill="#9a3412">要更新</text>
  <rect x="620" y="350" width="260" height="230" rx="16" fill="#ffffff" stroke="#dbe4f0"/>
  <text x="650" y="396" font-family="Arial, sans-serif" font-size="25" font-weight="700" fill="#0f172a">④ 車両カード</text>
  <text x="650" y="450" font-family="Arial, sans-serif" font-size="22" fill="#475569">姫路 501 め 85-29</text>
  <text x="650" y="492" font-family="Arial, sans-serif" font-size="20" fill="#64748b">車検: 2026-06-15</text>
  <rect x="650" y="522" width="86" height="34" rx="17" fill="#dcfce7"/>
  <text x="674" y="546" font-family="Arial, sans-serif" font-size="17" font-weight="700" fill="#166534">正常</text>
  <rect x="930" y="350" width="290" height="230" rx="16" fill="#fef2f2" stroke="#fecaca"/>
  <text x="960" y="396" font-family="Arial, sans-serif" font-size="25" font-weight="700" fill="#991b1b">⑤ アラート</text>
  <text x="960" y="452" font-family="Arial, sans-serif" font-size="22" fill="#991b1b">車検切れ・更新近い車両</text>
  <text x="960" y="500" font-family="Arial, sans-serif" font-size="20" fill="#7f1d1d">送迎前に必ず確認</text>
  <text x="52" y="690" font-family="Arial, sans-serif" font-size="20" fill="#991b1b">ログアウト</text>
</svg>
