<svg xmlns="http://www.w3.org/2000/svg" viewBox="0 0 420 88" role="img" aria-label="EMIFULL logo">
  <title>EMIFULL</title>
  <rect x="0" y="0" width="420" height="78" fill="#707070"/>
  <rect x="0" y="78" width="420" height="10" fill="#6aa8dc"/>
  <g transform="translate(22 10) scale(1.68)">
    <path d="M 8.429 22.769 C 12.43 22.403 16.4 21.853 20.168 20.735 C 22.045 20.174 23.874 19.475 25.529 18.517 C 27.185 17.571 28.68 16.393 29.841 14.96 C 29.982 14.78 30.15 14.617 30.272 14.423 L 30.645 13.845 C 30.768 13.653 30.902 13.46 31.017 13.27 L 31.292 12.711 C 31.608 11.956 31.745 11.162 31.62 10.432 C 31.399 8.962 30.179 7.816 28.57 7.516 C 28.37 7.482 28.163 7.464 27.96 7.433 C 27.755 7.411 27.54 7.424 27.331 7.415 C 26.904 7.418 26.438 7.502 25.995 7.537 C 25.107 7.676 24.242 7.917 23.43 8.28 C 21.805 8.998 20.403 10.185 19.375 11.656 C 17.317 14.61 16.809 18.634 18.082 21.955 C 18.372 22.797 18.815 23.575 19.313 24.321 C 19.836 25.054 20.449 25.726 21.11 26.349 C 21.795 26.949 22.524 27.501 23.308 27.972 C 24.1 28.425 24.917 28.843 25.779 29.138 C 26.637 29.433 27.514 29.68 28.407 29.789 C 29.3 29.913 30.186 29.96 31.081 29.863 C 31.978 29.811 32.857 29.596 33.724 29.367 C 34.58 29.082 35.43 28.774 36.229 28.335 C 39.468 26.67 42.107 23.793 43.818 20.558 L 43.827 20.542 C 44.366 19.522 45.631 19.133 46.651 19.672 C 47.672 20.212 48.061 21.477 47.521 22.497 C 47.503 22.533 47.479 22.574 47.459 22.608 C 45.146 26.399 41.891 29.62 37.823 31.561 C 36.818 32.06 35.74 32.416 34.656 32.726 C 33.554 32.981 32.437 33.198 31.302 33.228 C 30.739 33.275 30.166 33.246 29.596 33.235 C 29.311 33.22 29.029 33.184 28.747 33.158 C 28.463 33.136 28.182 33.097 27.905 33.042 C 26.784 32.873 25.701 32.545 24.652 32.154 C 23.6 31.762 22.61 31.232 21.657 30.652 C 20.713 30.054 19.833 29.358 19.012 28.596 C 18.21 27.811 17.472 26.957 16.835 26.02 C 16.216 25.074 15.666 24.065 15.301 22.979 C 13.742 18.674 14.459 13.736 17.092 10.043 C 18.412 8.201 20.239 6.691 22.344 5.795 C 23.393 5.344 24.503 5.051 25.62 4.894 C 26.187 4.85 26.73 4.764 27.317 4.766 C 27.615 4.779 27.91 4.771 28.209 4.806 C 28.508 4.85 28.806 4.886 29.104 4.943 C 30.295 5.187 31.484 5.746 32.416 6.647 C 33.352 7.539 33.991 8.769 34.178 10.048 C 34.378 11.332 34.125 12.614 33.649 13.721 L 33.247 14.526 C 33.1 14.769 32.944 14.995 32.792 15.23 L 32.331 15.926 C 32.179 16.16 31.981 16.356 31.807 16.573 C 30.397 18.289 28.631 19.644 26.759 20.696 C 24.882 21.752 22.895 22.523 20.885 23.123 C 16.858 24.321 12.737 24.886 8.658 25.265 C 7.969 25.329 7.359 24.822 7.295 24.133 C 7.231 23.444 7.738 22.833 8.427 22.769 Z" fill="#6aa8dc"/>
    <path d="M 41.685 13.746 C 42.156 14.916 41.604 16.334 40.457 16.912 C 39.31 17.49 37.998 17.01 37.529 15.839 C 37.06 14.669 37.611 13.251 38.757 12.673 C 39.906 12.095 41.216 12.576 41.685 13.746" fill="#6aa8dc"/>
    <circle cx="49.6" cy="22.9" r="3.8" fill="#6aa8dc"/>
  </g>
  <text x="130" y="55"
        fill="#f2f2f2"
        font-family="Avenir Next, Helvetica Neue, Arial, sans-serif"
        font-size="44"
        font-weight="300"
        letter-spacing="11">EMIFULL</text>
</svg>
